# xmcd CD database file
#
# Track frame offsets:
#	150
#	13872
#	28844
#	42793
#	57700
#	72102
#	89262
#	110610
#	126456
#	141384
#	155139
#	178167
#	193685
#	218867
#	232201
#	246901
#	260698
#	275605
#	290007
#	307164
#
# Disc length: 4379 seconds
#
# Revision: 0
# Processed by: cddbd v1.5.2PL0 Copyright (c) Steve Scherf et al.
# Submitted via: CDex 1.70beta2
#
DISCID=4f111914
DTITLE=Steven Halpern - Chakra Suite
DYEAR=2005
DGENRE=New Age
TTITLE0=1st Chakra: C
TTITLE1=2nd Chakra: D
TTITLE2=3rd Chakra: E
TTITLE3=4th Chakra: F
TTITLE4=5th Chakra: G
TTITLE5=6th Chakra: A
TTITLE6=7th Chakra: B
TTITLE7=Eternally
TTITLE8=Chakra Angels
TTITLE9=Earthrise
TTITLE10=Harmonic Convergence
TTITLE11=Rainbows Of Life
TTITLE12=Ascension
TTITLE13=1st Chakra: C - 2005
TTITLE14=2nd Chakra: D - 2005
TTITLE15=3rd Chakra: E - 2005
TTITLE16=4th Chakra: F - 2005
TTITLE17=5th Chakra: G - 2005
TTITLE18=6th Chakra: A - 2005
TTITLE19=7th Chakra: B - 2005
EXTD=YEAR: 2005
EXTT0=
EXTT1=
EXTT2=
EXTT3=
EXTT4=
EXTT5=
EXTT6=
EXTT7=
EXTT8=
EXTT9=
EXTT10=
EXTT11=
EXTT12=
EXTT13=
EXTT14=
EXTT15=
EXTT16=
EXTT17=
EXTT18=
EXTT19=
PLAYORDER=
